<svg width="241" height="60" viewBox="0 0 241 60" fill="none" xmlns="http://www.w3.org/2000/svg">
<g id="Group 1">
<g id="Layer 1">
<g id="Group">
<g id="Group_2">
<g id="Group_3">
<path id="Vector" d="M62.6008 29.9335V6.10498H73.1696C78.7032 6.10498 82.0269 8.89706 82.0269 14.0821C82.0269 19.2671 78.7032 22.0575 73.1696 22.0575H67.087V29.9335H62.6008ZM67.087 9.86086V18.3016H73.1696C76.2771 18.3016 77.5059 16.6563 77.5059 14.0803C77.5059 11.5044 76.2771 9.85912 73.1696 9.85912H67.087V9.86086Z" fill="#21209C"/>
<path id="Vector_2" d="M85.0143 18.0196C85.0143 10.8582 89.5004 5.60693 97.6762 5.60693C105.852 5.60693 110.338 10.8582 110.338 18.0196C110.338 25.1811 105.852 30.4324 97.6762 30.4324C89.5004 30.4324 85.0143 25.1985 85.0143 18.0196ZM105.786 18.0196C105.786 13.035 103.194 9.36282 97.6762 9.36282C92.1583 9.36282 89.5667 13.035 89.5667 18.0196C89.5667 23.0043 92.1583 26.6765 97.6762 26.6765C103.194 26.6765 105.786 23.0043 105.786 18.0196Z" fill="#21209C"/>
<path id="Vector_3" d="M118.145 26.1776H129.825V29.9335H113.657V6.10498H118.143V26.1776H118.145Z" fill="#21209C"/>
<path id="Vector_4" d="M138.314 16.1746L144.794 6.10428H149.646L140.557 20.0124V29.9328H136.071V19.995L126.982 6.10254H131.834L138.314 16.1728V16.1746Z" fill="#21209C"/>
<path id="Vector_5" d="M148.979 18.0196C148.979 10.8582 153.467 5.60693 161.641 5.60693C164.481 5.60693 168.288 6.15594 171.294 8.63081L169.117 11.5222C166.874 10.0094 164.316 9.36107 161.641 9.36107C156.123 9.36107 153.531 13.0333 153.531 18.0179C153.531 23.0025 156.123 26.6747 161.641 26.6747C163.8 26.6747 166.01 26.2425 167.141 25.4948V20.0274H161.973V16.2715H171.362V27.6211C168.903 29.8642 164.799 30.4289 161.641 30.4289C153.465 30.4289 148.979 25.195 148.979 18.0162V18.0196Z" fill="#21209C"/>
<path id="Vector_6" d="M179.502 26.1776H191.183V29.9335H175.014V6.10498H179.5V26.1776H179.502Z" fill="#21209C"/>
<path id="Vector_7" d="M193.323 18.0196C193.323 10.8582 197.809 5.60693 205.985 5.60693C214.161 5.60693 218.647 10.8582 218.647 18.0196C218.647 25.1811 214.161 30.4324 205.985 30.4324C197.809 30.4324 193.323 25.1985 193.323 18.0196ZM214.094 18.0196C214.094 13.035 211.503 9.36282 205.987 9.36282C200.47 9.36282 197.877 13.035 197.877 18.0196C197.877 23.0043 200.469 26.6765 205.987 26.6765C211.504 26.6765 214.094 23.0043 214.094 18.0196Z" fill="#21209C"/>
<path id="Vector_8" d="M240.048 6.10526V9.86114H231.922V29.9338H227.436V9.8594H219.311V6.10352H240.049L240.048 6.10526Z" fill="#21209C"/>
</g>
<g id="Group_4">
<path id="Vector_9" d="M62.6008 35.1938H64.9554V45.9962C64.9554 46.7839 64.9642 47.4497 65.5376 47.4497H65.8478V49.4104H64.6382C62.6026 49.4104 62.6026 47.5543 62.6026 46.0345V35.1938H62.6008Z" fill="#EC8D18"/>
<path id="Vector_10" d="M69.0709 42.2734L68.1803 40.595C69.2766 39.9571 70.7772 39.6382 72.2499 39.6382C75.6258 39.6382 76.5077 40.9227 76.5077 43.971V49.4087H74.1549L74.1444 47.8994C73.6198 49.1089 72.466 49.5969 71.0403 49.5969C68.9681 49.5969 67.3455 48.668 67.3455 46.4371C67.3455 43.5126 70.7685 42.7893 74.1531 43.164C74.1531 41.9632 73.7209 41.5972 72.2499 41.5972C71.2268 41.5972 69.9998 41.8412 69.0709 42.2717V42.2734ZM71.4151 47.6379C73.1022 47.6379 74.181 46.6811 74.1531 45.6598V44.6838C72.8773 44.6088 69.7088 44.5339 69.7088 46.3447C69.7088 47.3486 70.5157 47.6379 71.4151 47.6379Z" fill="#EC8D18"/>
<path id="Vector_11" d="M81.1136 49.4085H78.759V39.8245H81.1136V41.2867C81.5162 40.0859 82.8199 39.6362 83.8151 39.6362C86.4695 39.6362 88.1095 41.2397 88.1095 44.2775V49.4068H85.7549V44.2775C85.7549 42.627 84.9758 41.5952 83.4386 41.5952C81.9014 41.5952 81.1136 42.627 81.1136 44.2775V49.4068V49.4085Z" fill="#EC8D18"/>
<path id="Vector_12" d="M100.318 39.8247V49.4087C100.318 53.2901 97.8903 54.3968 95.011 54.3968C93.1636 54.3968 91.6072 53.9088 90.5476 53.1506L91.7571 51.5751C92.6198 52.0997 93.6882 52.4274 95.011 52.4274C96.7835 52.4274 97.9652 51.7808 97.9652 49.4087V47.8053C97.3657 49.0148 95.8738 49.5969 94.6921 49.5969C91.7292 49.5969 89.9846 47.4497 89.9846 44.6176C89.9846 41.7854 91.7292 39.6382 94.6921 39.6382C95.8738 39.6382 97.3639 40.2203 97.9652 41.4299V39.8264H100.32L100.318 39.8247ZM97.9635 44.6158C97.9635 43.0403 97.167 41.6059 95.1784 41.6059C93.1898 41.6059 92.3933 43.0403 92.3933 44.6158C92.3933 46.1914 93.1898 47.6258 95.1784 47.6258C97.167 47.6258 97.9635 46.1914 97.9635 44.6158Z" fill="#EC8D18"/>
<path id="Vector_13" d="M109.564 39.8242H111.918V49.4082H109.564V47.946C109.142 49.1468 107.877 49.5965 106.862 49.5965C104.208 49.5965 102.568 47.993 102.568 44.9552V39.826H104.922V44.9552C104.922 46.6057 105.702 47.6375 107.239 47.6375C108.776 47.6375 109.564 46.6057 109.564 44.9552V39.826V39.8242Z" fill="#EC8D18"/>
<path id="Vector_14" d="M115.519 42.2734L114.629 40.595C115.725 39.9571 117.225 39.6382 118.698 39.6382C122.074 39.6382 122.956 40.9227 122.956 43.971V49.4087H120.603L120.593 47.8994C120.068 49.1089 118.914 49.5969 117.489 49.5969C115.416 49.5969 113.794 48.668 113.794 46.4371C113.794 43.5126 117.217 42.7893 120.601 43.164C120.601 41.9632 120.169 41.5972 118.698 41.5972C117.675 41.5972 116.448 41.8412 115.519 42.2717V42.2734ZM117.863 47.6379C119.55 47.6379 120.629 46.6811 120.601 45.6598V44.6838C119.326 44.6088 116.157 44.5339 116.157 46.3447C116.157 47.3486 116.964 47.6379 117.863 47.6379Z" fill="#EC8D18"/>
<path id="Vector_15" d="M135.165 39.8247V49.4087C135.165 53.2901 132.737 54.3968 129.858 54.3968C128.011 54.3968 126.454 53.9088 125.394 53.1506L126.604 51.5751C127.467 52.0997 128.535 52.4274 129.858 52.4274C131.63 52.4274 132.812 51.7808 132.812 49.4087V47.8053C132.213 49.0148 130.721 49.5969 129.539 49.5969C126.576 49.5969 124.832 47.4497 124.832 44.6176C124.832 41.7854 126.576 39.6382 129.539 39.6382C130.721 39.6382 132.211 40.2203 132.812 41.4299V39.8264H135.167L135.165 39.8247ZM132.81 44.6158C132.81 43.0403 132.014 41.6059 130.025 41.6059C128.037 41.6059 127.24 43.0403 127.24 44.6158C127.24 46.1914 128.037 47.6258 130.025 47.6258C132.014 47.6258 132.81 46.1914 132.81 44.6158Z" fill="#EC8D18"/>
<path id="Vector_16" d="M145.085 46.6341L146.511 48.0493C145.357 49.1839 143.895 49.5969 142.103 49.5969C138.802 49.5969 137.04 47.4584 137.04 44.6176C137.04 41.7767 138.804 39.6382 142.103 39.6382C145.402 39.6382 147.346 41.7105 147.166 45.5361H139.579C139.579 46.221 140.189 47.6362 142.101 47.6362C143.536 47.6362 144.445 47.1674 145.083 46.6323L145.085 46.6341ZM144.625 43.6886C144.625 42.9949 144.034 41.5972 142.103 41.5972C140.172 41.5972 139.581 42.9949 139.581 43.6886H144.625Z" fill="#EC8D18"/>
<path id="Vector_17" d="M161.11 42.2819C160.182 41.8044 159.122 41.597 158.184 41.597C157.086 41.597 156.589 41.8688 156.589 42.4684C156.589 43.0679 157.321 43.3416 158.493 43.5664C161.062 44.0631 162.562 44.6452 162.562 46.6879C162.562 48.7305 160.921 49.595 158.39 49.595C156.598 49.595 154.892 49.1174 153.871 48.4691L154.864 46.7715C155.868 47.2961 157.199 47.6343 158.39 47.6343C159.741 47.6343 160.199 47.2683 160.199 46.5938C160.199 45.9193 159.328 45.7694 158.071 45.5446C155.342 45.0478 154.235 44.1381 154.235 42.4684C154.235 40.7987 155.295 39.6362 158.182 39.6362C159.73 39.6362 161.015 39.9081 162.102 40.5844L161.109 42.2819H161.11Z" fill="#EC8D18"/>
<path id="Vector_18" d="M169.224 47.6362C170.236 47.6362 171.146 47.373 171.981 46.709L173.182 48.2183C172.133 49.2588 170.771 49.5969 169.226 49.5969C165.963 49.5969 163.88 47.4497 163.88 44.6176C163.88 41.7854 165.961 39.6382 169.226 39.6382C170.773 39.6382 172.133 39.9763 173.182 41.0168L171.964 42.5069C171.129 41.8412 170.238 41.5972 169.226 41.5972C167.172 41.5972 166.291 43.0403 166.291 44.6158C166.291 46.1914 167.172 47.6345 169.226 47.6345L169.224 47.6362Z" fill="#EC8D18"/>
<path id="Vector_19" d="M177.222 49.4087H174.869V35.1938H177.222V41.2887C177.625 40.0878 178.928 39.6382 179.924 39.6382C182.578 39.6382 184.218 41.2416 184.218 44.2794V49.4087H181.865V44.2794C181.865 42.6289 181.086 41.5971 179.549 41.5971C178.012 41.5971 177.224 42.6289 177.224 44.2794V49.4087H177.222Z" fill="#EC8D18"/>
<path id="Vector_20" d="M191.438 49.5969C188.175 49.5969 186.094 47.4497 186.094 44.6176C186.094 41.7854 188.175 39.6382 191.438 39.6382C194.701 39.6382 196.783 41.7662 196.783 44.6176C196.783 47.4689 194.692 49.5969 191.438 49.5969ZM191.438 41.5989C189.385 41.5989 188.503 43.042 188.503 44.6176C188.503 46.1931 189.385 47.6362 191.438 47.6362C193.491 47.6362 194.373 46.1931 194.373 44.6176C194.373 43.042 193.491 41.5989 191.438 41.5989Z" fill="#EC8D18"/>
<path id="Vector_21" d="M203.629 49.5969C200.367 49.5969 198.286 47.4497 198.286 44.6176C198.286 41.7854 200.367 39.6382 203.629 39.6382C206.892 39.6382 208.975 41.7662 208.975 44.6176C208.975 47.4689 206.883 49.5969 203.629 49.5969ZM203.629 41.5989C201.576 41.5989 200.694 43.042 200.694 44.6176C200.694 46.1931 201.576 47.6362 203.629 47.6362C205.682 47.6362 206.564 46.1931 206.564 44.6176C206.564 43.042 205.682 41.5989 203.629 41.5989Z" fill="#EC8D18"/>
<path id="Vector_22" d="M210.85 35.1938H213.203V45.9962C213.203 46.7839 213.212 47.4497 213.785 47.4497H214.095V49.4104H212.886C210.852 49.4104 210.852 47.5543 210.852 46.0345V35.1938H210.85Z" fill="#EC8D18"/>
</g>
</g>
<g id="Group_5">
<path id="Vector_23" d="M18.0283 19.4649H8.67603C8.98103 14.6371 13.0053 10.7993 17.9063 10.7993H18.0283V19.4649Z" fill="#21209C"/>
<path id="Vector_24" d="M13.3203 23.8979H18.0261V28.5985C15.7969 27.8839 14.0349 26.1201 13.3203 23.8979Z" fill="#21209C"/>
<path id="Vector_25" d="M0 35.1798V4.7406C0 2.12281 2.12281 0 4.7406 0H45.3564C47.9742 0 50.097 2.12281 50.097 4.7406V15.3268C46.0327 9.88904 39.5422 6.36844 32.2413 6.36844H22.4621V6.36321H17.9045C10.3457 6.36321 4.21774 12.4911 4.21774 20.05V23.8965H8.75792C9.66072 28.5691 13.3486 32.2622 18.0265 33.165V38.6359C18.0265 46.6915 22.3401 53.9749 29.1024 57.9051C27.6001 58.7416 26.2145 59.451 25.0503 60C17.291 56.3295 0 45.8967 0 35.1798Z" fill="#21209C"/>
<path id="Vector_26" d="M32.2431 10.8037H22.4639V38.6391C22.4639 45.9678 26.9204 52.4931 33.6513 55.1981C37.5536 52.6971 41.6668 49.5825 44.8057 46.1561C47.9429 42.7191 50.1005 38.972 50.1005 35.1795V28.6542C50.1005 18.8087 42.0903 10.8037 32.2448 10.8037H32.2431ZM30.9621 22.8225C28.4959 22.8225 26.4986 20.827 26.4986 18.359C26.4986 15.8911 28.4942 13.9025 30.9621 13.9025C33.43 13.9025 35.4186 15.8981 35.4186 18.359C35.4186 20.82 33.423 22.8225 30.9621 22.8225Z" fill="#EC8D18"/>
</g>
</g>
</g>
</g>
</svg>
