<svg width="51" height="60" viewBox="0 0 51 60" fill="none" xmlns="http://www.w3.org/2000/svg">
<g id="Group">
<path id="Vector" d="M18.0283 19.4649H8.67603C8.98103 14.6371 13.0053 10.7993 17.9063 10.7993H18.0283V19.4649Z" fill="#21209C"/>
<path id="Vector_2" d="M13.3203 23.8979H18.0261V28.5985C15.7969 27.8839 14.0349 26.1201 13.3203 23.8979Z" fill="#21209C"/>
<path id="Vector_3" d="M0 35.1798V4.7406C0 2.12281 2.12281 0 4.7406 0H45.3564C47.9742 0 50.097 2.12281 50.097 4.7406V15.3268C46.0327 9.88904 39.5422 6.36844 32.2413 6.36844H22.4621V6.36321H17.9045C10.3457 6.36321 4.21774 12.4911 4.21774 20.05V23.8965H8.75792C9.66072 28.5691 13.3486 32.2622 18.0265 33.165V38.6359C18.0265 46.6915 22.3401 53.9749 29.1024 57.9051C27.6001 58.7416 26.2145 59.451 25.0503 60C17.291 56.3295 0 45.8967 0 35.1798Z" fill="#21209C"/>
<path id="Vector_4" d="M32.2431 10.8037H22.4639V38.6391C22.4639 45.9678 26.9204 52.4931 33.6513 55.1981C37.5536 52.6971 41.6668 49.5826 44.8057 46.1561C47.9429 42.7191 50.1005 38.972 50.1005 35.1795V28.6542C50.1005 18.8087 42.0903 10.8037 32.2448 10.8037H32.2431ZM30.9621 22.8225C28.4959 22.8225 26.4986 20.827 26.4986 18.359C26.4986 15.8911 28.4942 13.9025 30.9621 13.9025C33.43 13.9025 35.4186 15.8981 35.4186 18.359C35.4186 20.82 33.423 22.8225 30.9621 22.8225Z" fill="#EC8D18"/>
</g>
</svg>
